{
    "asset" : {
        "generator" : "Khronos glTF Blender I/O v1.5.17",
        "version" : "2.0"
    },
    "scene" : 0,
    "scenes" : [
        {
            "name" : "Scene",
            "nodes" : [
                0,
                1,
                2,
                3,
                4,
                5
            ]
        }
    ],
    "nodes" : [
        {
            "mesh" : 0,
            "name" : "Mesh_0"
        },
        {
            "mesh" : 1,
            "name" : "Mesh_1"
        },
        {
            "mesh" : 2,
            "name" : "Mesh_2"
        },
        {
            "mesh" : 3,
            "name" : "Mesh_3"
        },
        {
            "mesh" : 4,
            "name" : "Mesh_4"
        },
        {
            "mesh" : 5,
            "name" : "Mesh_5"
        }
    ],
    "materials" : [
        {
            "doubleSided" : true,
            "name" : "material_0",
            "pbrMetallicRoughness" : {
                "baseColorTexture" : {
                    "index" : 0
                },
                "metallicFactor" : 0,
                "roughnessFactor" : 0.6000000238418579
            }
        },
        {
            "doubleSided" : true,
            "name" : "material_1",
            "pbrMetallicRoughness" : {
                "baseColorTexture" : {
                    "index" : 1
                },
                "metallicFactor" : 0,
                "roughnessFactor" : 0.6000000238418579
            }
        },
        {
            "doubleSided" : true,
            "name" : "material_2",
            "pbrMetallicRoughness" : {
                "baseColorTexture" : {
                    "index" : 2
                },
                "metallicFactor" : 0,
                "roughnessFactor" : 0.6000000238418579
            }
        },
        {
            "doubleSided" : true,
            "name" : "material_3",
            "pbrMetallicRoughness" : {
                "baseColorTexture" : {
                    "index" : 3
                },
                "metallicFactor" : 0,
                "roughnessFactor" : 0.6000000238418579
            }
        },
        {
            "doubleSided" : true,
            "name" : "material_4",
            "pbrMetallicRoughness" : {
                "baseColorTexture" : {
                    "index" : 4
                },
                "metallicFactor" : 0,
                "roughnessFactor" : 0.6000000238418579
            }
        },
        {
            "doubleSided" : true,
            "name" : "material_5",
            "pbrMetallicRoughness" : {
                "baseColorTexture" : {
                    "index" : 5
                },
                "metallicFactor" : 0,
                "roughnessFactor" : 0.6000000238418579
            }
        }
    ],
    "meshes" : [
        {
            "name" : "Mesh_0",
            "primitives" : [
                {
                    "attributes" : {
                        "POSITION" : 0,
                        "NORMAL" : 1,
                        "TEXCOORD_0" : 2
                    },
                    "indices" : 3,
                    "material" : 0
                }
            ]
        },
        {
            "name" : "Mesh_1",
            "primitives" : [
                {
                    "attributes" : {
                        "POSITION" : 4,
                        "NORMAL" : 5,
                        "TEXCOORD_0" : 6
                    },
                    "indices" : 7,
                    "material" : 1
                }
            ]
        },
        {
            "name" : "Mesh_2",
            "primitives" : [
                {
                    "attributes" : {
                        "POSITION" : 8,
                        "NORMAL" : 9,
                        "TEXCOORD_0" : 10
                    },
                    "indices" : 11,
                    "material" : 2
                }
            ]
        },
        {
            "name" : "Mesh_3",
            "primitives" : [
                {
                    "attributes" : {
                        "POSITION" : 12,
                        "NORMAL" : 13,
                        "TEXCOORD_0" : 14
                    },
                    "indices" : 15,
                    "material" : 3
                }
            ]
        },
        {
            "name" : "Mesh_4",
            "primitives" : [
                {
                    "attributes" : {
                        "POSITION" : 16,
                        "NORMAL" : 17,
                        "TEXCOORD_0" : 18
                    },
                    "indices" : 19,
                    "material" : 4
                }
            ]
        },
        {
            "name" : "Mesh_5",
            "primitives" : [
                {
                    "attributes" : {
                        "POSITION" : 20,
                        "NORMAL" : 21,
                        "TEXCOORD_0" : 22
                    },
                    "indices" : 23,
                    "material" : 5
                }
            ]
        }
    ],
    "textures" : [
        {
            "sampler" : 0,
            "source" : 0
        },
        {
            "sampler" : 0,
            "source" : 1
        },
        {
            "sampler" : 0,
            "source" : 2
        },
        {
            "sampler" : 0,
            "source" : 3
        },
        {
            "sampler" : 0,
            "source" : 4
        },
        {
            "sampler" : 0,
            "source" : 5
        }
    ],
    "images" : [
        {
            "mimeType" : "image/png",
            "name" : "material_0_baseColor",
            "uri" : "material_0_baseColor.png"
        },
        {
            "mimeType" : "image/png",
            "name" : "material_1_baseColor",
            "uri" : "material_1_baseColor.png"
        },
        {
            "mimeType" : "image/png",
            "name" : "material_2_baseColor",
            "uri" : "material_2_baseColor.png"
        },
        {
            "mimeType" : "image/png",
            "name" : "material_3_baseColor",
            "uri" : "material_3_baseColor.png"
        },
        {
            "mimeType" : "image/png",
            "name" : "material_4_baseColor",
            "uri" : "material_4_baseColor.png"
        },
        {
            "mimeType" : "image/png",
            "name" : "material_5_baseColor",
            "uri" : "material_5_baseColor.png"
        }
    ],
    "accessors" : [
        {
            "bufferView" : 0,
            "componentType" : 5126,
            "count" : 126,
            "max" : [
                0.3804548382759094,
                0.3801617920398712,
                1.07958984375
            ],
            "min" : [
                -0.3806418180465698,
                -0.3425469398498535,
                0.41195476055145264
            ],
            "type" : "VEC3"
        },
        {
            "bufferView" : 1,
            "componentType" : 5126,
            "count" : 126,
            "type" : "VEC3"
        },
        {
            "bufferView" : 2,
            "componentType" : 5126,
            "count" : 126,
            "type" : "VEC2"
        },
        {
            "bufferView" : 3,
            "componentType" : 5123,
            "count" : 648,
            "type" : "SCALAR"
        },
        {
            "bufferView" : 4,
            "componentType" : 5126,
            "count" : 1004,
            "max" : [
                0.5699734687805176,
                0.1556083709001541,
                1.5478723049163818
            ],
            "min" : [
                -0.6444205045700073,
                -0.24427372217178345,
                0.8318379521369934
            ],
            "type" : "VEC3"
        },
        {
            "bufferView" : 5,
            "componentType" : 5126,
            "count" : 1004,
            "type" : "VEC3"
        },
        {
            "bufferView" : 6,
            "componentType" : 5126,
            "count" : 1004,
            "type" : "VEC2"
        },
        {
            "bufferView" : 7,
            "componentType" : 5123,
            "count" : 3792,
            "type" : "SCALAR"
        },
        {
            "bufferView" : 8,
            "componentType" : 5126,
            "count" : 887,
            "max" : [
                0.14884091913700104,
                0.08236154913902283,
                1.0735284090042114
            ],
            "min" : [
                -0.1456674188375473,
                -0.13409534096717834,
                0.002021634951233864
            ],
            "type" : "VEC3"
        },
        {
            "bufferView" : 9,
            "componentType" : 5126,
            "count" : 887,
            "type" : "VEC3"
        },
        {
            "bufferView" : 10,
            "componentType" : 5126,
            "count" : 887,
            "type" : "VEC2"
        },
        {
            "bufferView" : 11,
            "componentType" : 5123,
            "count" : 4242,
            "type" : "SCALAR"
        },
        {
            "bufferView" : 12,
            "componentType" : 5126,
            "count" : 522,
            "max" : [
                0.13736608624458313,
                0.10967174172401428,
                1.6944612264633179
            ],
            "min" : [
                -0.13909348845481873,
                -0.05025245249271393,
                1.397232174873352
            ],
            "type" : "VEC3"
        },
        {
            "bufferView" : 13,
            "componentType" : 5126,
            "count" : 522,
            "type" : "VEC3"
        },
        {
            "bufferView" : 14,
            "componentType" : 5126,
            "count" : 522,
            "type" : "VEC2"
        },
        {
            "bufferView" : 15,
            "componentType" : 5123,
            "count" : 2514,
            "type" : "SCALAR"
        },
        {
            "bufferView" : 16,
            "componentType" : 5126,
            "count" : 793,
            "max" : [
                0.39332452416419983,
                0.32909104228019714,
                1.6835838556289673
            ],
            "min" : [
                -0.29676711559295654,
                -0.05685875192284584,
                0.9529087543487549
            ],
            "type" : "VEC3"
        },
        {
            "bufferView" : 17,
            "componentType" : 5126,
            "count" : 793,
            "type" : "VEC3"
        },
        {
            "bufferView" : 18,
            "componentType" : 5126,
            "count" : 793,
            "type" : "VEC2"
        },
        {
            "bufferView" : 19,
            "componentType" : 5123,
            "count" : 3162,
            "type" : "SCALAR"
        },
        {
            "bufferView" : 20,
            "componentType" : 5126,
            "count" : 743,
            "max" : [
                0.6372641921043396,
                0.09975044429302216,
                1.409918189048767
            ],
            "min" : [
                -0.7491143345832825,
                -0.09645124524831772,
                0.9454460740089417
            ],
            "type" : "VEC3"
        },
        {
            "bufferView" : 21,
            "componentType" : 5126,
            "count" : 743,
            "type" : "VEC3"
        },
        {
            "bufferView" : 22,
            "componentType" : 5126,
            "count" : 743,
            "type" : "VEC2"
        },
        {
            "bufferView" : 23,
            "componentType" : 5123,
            "count" : 3204,
            "type" : "SCALAR"
        }
    ],
    "bufferViews" : [
        {
            "buffer" : 0,
            "byteLength" : 1512,
            "byteOffset" : 0
        },
        {
            "buffer" : 0,
            "byteLength" : 1512,
            "byteOffset" : 1512
        },
        {
            "buffer" : 0,
            "byteLength" : 1008,
            "byteOffset" : 3024
        },
        {
            "buffer" : 0,
            "byteLength" : 1296,
            "byteOffset" : 4032
        },
        {
            "buffer" : 0,
            "byteLength" : 12048,
            "byteOffset" : 5328
        },
        {
            "buffer" : 0,
            "byteLength" : 12048,
            "byteOffset" : 17376
        },
        {
            "buffer" : 0,
            "byteLength" : 8032,
            "byteOffset" : 29424
        },
        {
            "buffer" : 0,
            "byteLength" : 7584,
            "byteOffset" : 37456
        },
        {
            "buffer" : 0,
            "byteLength" : 10644,
            "byteOffset" : 45040
        },
        {
            "buffer" : 0,
            "byteLength" : 10644,
            "byteOffset" : 55684
        },
        {
            "buffer" : 0,
            "byteLength" : 7096,
            "byteOffset" : 66328
        },
        {
            "buffer" : 0,
            "byteLength" : 8484,
            "byteOffset" : 73424
        },
        {
            "buffer" : 0,
            "byteLength" : 6264,
            "byteOffset" : 81908
        },
        {
            "buffer" : 0,
            "byteLength" : 6264,
            "byteOffset" : 88172
        },
        {
            "buffer" : 0,
            "byteLength" : 4176,
            "byteOffset" : 94436
        },
        {
            "buffer" : 0,
            "byteLength" : 5028,
            "byteOffset" : 98612
        },
        {
            "buffer" : 0,
            "byteLength" : 9516,
            "byteOffset" : 103640
        },
        {
            "buffer" : 0,
            "byteLength" : 9516,
            "byteOffset" : 113156
        },
        {
            "buffer" : 0,
            "byteLength" : 6344,
            "byteOffset" : 122672
        },
        {
            "buffer" : 0,
            "byteLength" : 6324,
            "byteOffset" : 129016
        },
        {
            "buffer" : 0,
            "byteLength" : 8916,
            "byteOffset" : 135340
        },
        {
            "buffer" : 0,
            "byteLength" : 8916,
            "byteOffset" : 144256
        },
        {
            "buffer" : 0,
            "byteLength" : 5944,
            "byteOffset" : 153172
        },
        {
            "buffer" : 0,
            "byteLength" : 6408,
            "byteOffset" : 159116
        }
    ],
    "samplers" : [
        {
            "magFilter" : 9729,
            "minFilter" : 9987
        }
    ],
    "buffers" : [
        {
            "byteLength" : 165524,
            "uri" : "kurumi.bin"
        }
    ]
}
